<svg width="87" height="87" viewBox="0 0 87 87" fill="none" xmlns="http://www.w3.org/2000/svg">
<mask id="mask0_225_172" style="mask-type:luminance" maskUnits="userSpaceOnUse" x="0" y="0" width="87" height="87">
<path d="M87 0H0V87H87V0Z" fill="white"/>
</mask>
<g mask="url(#mask0_225_172)">
<path d="M43.5 0L44.6593 32.4683L52.5441 0.950579L46.9278 32.9504L61.1932 3.76077L49.0462 33.8936L69.0689 8.30776L50.9224 35.2567L75.8266 14.3928L52.474 36.98L81.1723 21.75L53.6333 38.9883L84.8711 30.0578L54.3502 41.1937L86.7616 38.953L54.5925 43.5L86.7616 48.0471L54.3502 45.8064L84.8711 56.9424L53.6333 48.0118L81.1723 65.25L52.474 50.0202L75.8266 72.6072L50.9224 51.7432L69.0689 78.6924L49.0462 53.1065L61.1932 83.2394L46.9278 54.0496L52.5441 86.0495L44.6593 54.5316L43.5 87L42.3405 54.5316L34.4558 86.0495L40.0722 54.0496L25.8069 83.2394L37.9537 53.1065L17.9313 78.6924L36.0777 51.7432L11.1732 72.6072L34.526 50.0202L5.8279 65.25L33.3665 48.0118L2.12902 56.9424L32.6499 45.8064L0.238281 48.0471L32.4075 43.5L0.238281 38.953L32.6499 41.1937L2.12902 30.0578L33.3665 38.9883L5.8279 21.75L34.526 36.98L11.1732 14.3928L36.0777 35.2567L17.9313 8.30776L37.9537 33.8936L25.8069 3.76077L40.0722 32.9504L34.4558 0.950579L42.3405 32.4683L43.5 0Z" fill="#FF1761"/>
</g>
</svg>
