<svg width="156" height="156" viewBox="0 0 156 156" fill="none" xmlns="http://www.w3.org/2000/svg">
<g clip-path="url(#clip0_265_124)">
<mask id="mask0_265_124" style="mask-type:luminance" maskUnits="userSpaceOnUse" x="0" y="0" width="156" height="156">
<path d="M156 0H0V156H156V0Z" fill="white"/>
</mask>
<g mask="url(#mask0_265_124)">
<path fill-rule="evenodd" clip-rule="evenodd" d="M85.8 0C90.1079 0 93.6 3.49218 93.6 7.8V21.5074C93.6 28.4564 102.001 31.9366 106.915 27.0228L116.608 17.3302C119.654 14.2841 124.593 14.2841 127.639 17.3302L138.67 28.3611C141.716 31.4072 141.716 36.3459 138.67 39.3919L128.977 49.0845C124.064 53.9983 127.543 62.4 134.492 62.4H148.2C152.508 62.4 156 65.8921 156 70.2V85.8C156 90.1079 152.508 93.6 148.2 93.6H134.492C127.543 93.6 124.064 102.001 128.977 106.915L138.67 116.608C141.716 119.654 141.716 124.593 138.67 127.639L127.639 138.67C124.593 141.716 119.654 141.716 116.608 138.67L106.915 128.977C102.001 124.064 93.6 127.543 93.6 134.492V148.2C93.6 152.508 90.1079 156 85.8 156H70.2C65.8921 156 62.4 152.508 62.4 148.2V134.492C62.4 127.543 53.9983 124.064 49.0845 128.977L39.3919 138.67C36.3459 141.716 31.4072 141.716 28.3611 138.67L17.3303 127.639C14.2841 124.593 14.2841 119.654 17.3303 116.608L27.0229 106.915C31.9366 102.001 28.4565 93.6 21.5074 93.6H7.8C3.49218 93.6 0 90.1079 0 85.8V70.2C0 65.8921 3.49218 62.4 7.8 62.4H21.5074C28.4564 62.4 31.9366 53.9983 27.0229 49.0845L17.3303 39.3919C14.2841 36.3458 14.2841 31.4072 17.3303 28.3611L28.3611 17.3302C31.4072 14.2841 36.3459 14.2841 39.3919 17.3302L49.0845 27.0228C53.9983 31.9366 62.4 28.4564 62.4 21.5074V7.8C62.4 3.49218 65.8921 0 70.2 0H85.8ZM78 117C99.5389 117 117 99.5389 117 78C117 56.4609 99.5389 39 78 39C56.4609 39 39 56.4609 39 78C39 99.5389 56.4609 117 78 117Z" fill="#FF1761"/>
</g>
</g>
<defs>
<clipPath id="clip0_265_124">
<rect width="156" height="156" fill="white"/>
</clipPath>
</defs>
</svg>
