<svg width="157" height="191" viewBox="0 0 157 191" fill="none" xmlns="http://www.w3.org/2000/svg">
<path d="M138.915 16.8804H8.06504C3.76827 16.8804 0.285034 20.3636 0.285034 24.6604V183.07C0.285034 187.367 3.76827 190.85 8.06504 190.85H138.915C143.212 190.85 146.695 187.367 146.695 183.07V24.6604C146.695 20.3636 143.212 16.8804 138.915 16.8804Z" fill="#FF729F"/>
<path d="M139 190.83H9.40053C7.09608 190.828 4.88691 189.907 3.25835 188.269C1.62978 186.632 0.715025 184.413 0.715027 182.099V24.5521C0.715027 22.239 1.6301 20.0206 3.25895 18.3849C4.8878 16.7493 7.09699 15.8304 9.40053 15.8304H139C140.143 15.8265 141.276 16.0492 142.333 16.4857C143.39 16.9223 144.351 17.5641 145.161 18.3744C145.97 19.1846 146.613 20.1474 147.051 21.2075C147.489 22.2677 147.715 23.4042 147.715 24.5521V182.099C147.715 183.247 147.489 184.384 147.051 185.445C146.613 186.505 145.971 187.469 145.161 188.28C144.352 189.091 143.391 189.734 142.333 190.171C141.276 190.609 140.143 190.833 139 190.83ZM9.40053 17.7896C7.62312 17.7922 5.91925 18.5024 4.66243 19.7644C3.40561 21.0265 2.69839 22.7374 2.69577 24.5222V182.099C2.69576 183.885 3.40183 185.599 4.65894 186.863C5.91604 188.127 7.6214 188.839 9.40053 188.841H139C140.779 188.839 142.484 188.127 143.741 186.863C144.999 185.599 145.705 183.885 145.705 182.099V24.5521C145.702 22.7673 144.995 21.0563 143.738 19.7943C142.481 18.5322 140.777 17.822 139 17.8194L9.40053 17.7896Z" fill="#FF729F"/>
<path d="M147.975 7.59038H17.125C12.8283 7.59038 9.34503 11.0736 9.34503 15.3704V173.78C9.34503 178.077 12.8283 181.56 17.125 181.56H147.975C152.272 181.56 155.755 178.077 155.755 173.78V15.3704C155.755 11.0736 152.272 7.59038 147.975 7.59038Z" fill="white"/>
<path d="M147.975 182.56H17.125C14.7972 182.558 12.5656 181.632 10.9196 179.986C9.27356 178.34 8.34768 176.108 8.34503 173.78V15.3304C8.34768 13.0026 9.27356 10.7709 10.9196 9.1249C12.5656 7.47891 14.7972 6.55303 17.125 6.55038H147.975C150.296 6.56358 152.517 7.49412 154.155 9.13898C155.792 10.7838 156.712 13.0095 156.715 15.3304V173.78C156.712 176.101 155.792 178.327 154.155 179.972C152.517 181.617 150.296 182.547 147.975 182.56ZM17.125 8.56038C15.3294 8.56302 13.6079 9.27681 12.3373 10.5456C11.0666 11.8143 10.3503 13.5348 10.345 15.3304V173.78C10.3477 175.578 11.0628 177.301 12.3338 178.572C13.6047 179.843 15.3277 180.558 17.125 180.56H147.975C149.772 180.558 151.495 179.843 152.766 178.572C154.037 177.301 154.752 175.578 154.755 173.78V15.3304C154.752 13.533 154.037 11.81 152.766 10.5391C151.495 9.26819 149.772 8.55303 147.975 8.55038L17.125 8.56038Z" fill="#093F68"/>
<path d="M85.195 51.1904C85.195 55.8713 84.1255 60.4904 82.0683 64.6951C80.0111 68.8998 77.0206 72.579 73.3248 75.4518C69.6291 78.3247 65.326 80.3152 60.7437 81.2716C56.1615 82.2281 51.4214 82.125 46.885 80.9704C44.89 80.4751 42.9527 79.7712 41.105 78.8704C36.1568 76.4847 31.9382 72.8166 28.8883 68.2478C25.8383 63.6789 24.0684 58.3762 23.7627 52.8914C23.4569 47.4066 24.6266 41.9401 27.1499 37.0606C29.6731 32.181 33.4579 28.0668 38.1104 25.146C42.7628 22.2252 48.113 20.6044 53.6042 20.4524C59.0954 20.3003 64.527 21.6225 69.334 24.2814C74.141 26.9404 78.1476 30.8388 80.937 35.5712C83.7264 40.3036 85.1968 45.6971 85.195 51.1904Z" fill="white"/>
<path d="M54.465 82.9204C51.8235 82.9158 49.1929 82.5799 46.635 81.9204C44.5661 81.404 42.5556 80.6769 40.635 79.7504C33.579 76.3549 28.021 70.4791 25.0228 63.2453C22.0246 56.0115 21.7963 47.9267 24.3815 40.5352C26.9667 33.1438 32.1842 26.9637 39.0374 23.1755C45.8907 19.3873 53.8993 18.2565 61.5335 19.999C69.1676 21.7416 75.8923 26.2355 80.423 32.6222C84.9537 39.0089 86.9729 46.8408 86.0948 54.622C85.2167 62.4031 81.5029 69.5881 75.6628 74.8045C69.8227 80.0208 62.2656 82.903 54.435 82.9004L54.465 82.9204ZM54.465 21.4504C47.731 21.4514 41.1966 23.7378 35.931 27.9355C30.6653 32.1332 26.9802 37.9937 25.4784 44.5581C23.9767 51.1226 24.7472 58.0024 27.664 64.072C30.5808 70.1416 35.4712 75.0416 41.5351 77.9704C43.3257 78.8249 45.1987 79.495 47.125 79.9704C51.8707 81.1748 56.8396 81.1954 61.5951 80.0304C63.5213 79.5441 65.3965 78.8744 67.195 78.0304C73.3002 75.1401 78.2396 70.2577 81.2004 64.1865C84.1612 58.1152 84.9671 51.2169 83.4854 44.6267C82.0037 38.0365 78.3227 32.147 73.0482 27.9274C67.7736 23.7077 61.2198 21.4093 54.465 21.4104V21.4504Z" fill="#093F68"/>
<path d="M49.195 31.8504C49.195 31.8504 46.195 30.8504 43.405 34.4604C40.775 37.8704 40.915 42.7604 40.785 46.8204C40.6188 50.9081 39.861 54.9501 38.535 58.8204C38.0334 60.6435 38.0976 62.576 38.7191 64.3619C39.3405 66.1477 40.4899 67.7025 42.015 68.8204C44.3648 70.4785 47.1418 71.4261 50.015 71.5504C52.395 71.7404 54.695 71.1004 57.015 71.3704C59.4774 71.7054 61.9837 71.2959 64.2114 70.1946C66.4391 69.0932 68.2862 67.3504 69.515 65.1904C70.1664 64.1593 70.5735 62.9929 70.705 61.7804C70.7349 60.5877 70.5832 59.3974 70.255 58.2504C69.3231 54.1167 68.8238 49.8974 68.765 45.6604C68.8187 42.2543 68.0395 38.8867 66.495 35.8504C62.955 29.2204 53.345 26.1804 49.195 31.8504Z" fill="#725858"/>
<path d="M50.995 72.5804C50.655 72.5804 50.315 72.5804 49.995 72.5804C46.9163 72.4549 43.9411 71.4331 41.435 69.6404C39.7486 68.3998 38.4799 66.6752 37.7975 64.696C37.1152 62.7167 37.0515 60.5767 37.615 58.5604C38.9217 54.78 39.6631 50.8274 39.815 46.8304V45.6604C39.915 41.6604 40.035 37.2304 42.615 33.8904C44.995 30.8004 47.565 30.6504 48.785 30.8004C49.6849 29.7725 50.8188 28.9761 52.091 28.4784C53.3633 27.9806 54.7365 27.7961 56.095 27.9404C58.4383 28.1667 60.692 28.9572 62.6633 30.2441C64.6346 31.531 66.265 33.2762 67.415 35.3304C69.0363 38.5115 69.8567 42.0403 69.805 45.6104C69.86 49.7771 70.3527 53.9266 71.275 57.9904L71.325 58.2404C71.6488 59.4049 71.7905 60.6125 71.745 61.8204C71.6026 63.1824 71.1474 64.4932 70.415 65.6504C69.0933 67.9814 67.104 69.8634 64.7033 71.0539C62.3027 72.2444 59.6006 72.689 56.945 72.3304C55.8017 72.2478 54.6532 72.2746 53.515 72.4104C52.715 72.5004 51.855 72.5804 50.995 72.5804ZM48.165 32.7104C47.295 32.7104 45.755 33.0504 44.165 35.0704C41.985 37.9004 41.875 42.0704 41.785 45.6704V46.8504C41.6235 51.0334 40.852 55.1703 39.495 59.1304C39.0534 60.7523 39.1154 62.4702 39.6726 64.0561C40.2298 65.642 41.256 67.0211 42.615 68.0104C44.8213 69.563 47.4292 70.445 50.125 70.5504C51.1962 70.6028 52.2699 70.566 53.335 70.4404C54.606 70.2865 55.8893 70.263 57.165 70.3704C59.4359 70.6759 61.7464 70.2966 63.8005 69.2812C65.8546 68.2657 67.5588 66.6602 68.695 64.6704C69.2739 63.765 69.6366 62.7385 69.755 61.6704C69.7721 60.6574 69.6441 59.6471 69.375 58.6704V58.4204C68.4208 54.2188 67.9113 49.9286 67.855 45.6204C67.8892 42.3908 67.134 39.2017 65.655 36.3304C64.671 34.5612 63.2762 33.0545 61.5881 31.9372C59.9 30.8199 57.968 30.1248 55.955 29.9104C54.8189 29.7694 53.6658 29.931 52.6122 30.3788C51.5586 30.8265 50.642 31.5446 49.955 32.4604C49.829 32.6293 49.6529 32.7541 49.4517 32.8169C49.2506 32.8798 49.0348 32.8775 48.835 32.8104C48.617 32.7479 48.3918 32.7142 48.165 32.7104Z" fill="#093F68"/>
<path d="M67.615 73.5604V78.9704C65.7653 79.8479 63.8323 80.538 61.845 81.0304C59.4296 81.622 56.9518 81.9208 54.465 81.9204C51.9064 81.9062 49.3598 81.5702 46.885 80.9204C44.89 80.4251 42.9527 79.7212 41.105 78.8204V73.5104C41.105 71.1234 42.0532 68.8343 43.7411 67.1464C45.4289 65.4586 47.7181 64.5104 50.105 64.5104H58.675C61.062 64.5104 63.3512 65.4586 65.039 67.1464C66.7268 68.8343 67.675 71.1234 67.675 73.5104L67.615 73.5604Z" fill="#68E1FD"/>
<path d="M54.465 82.9204C51.8235 82.9158 49.1929 82.5799 46.635 81.9204C44.5661 81.404 42.5556 80.6769 40.635 79.7504C40.4667 79.6679 40.325 79.5398 40.226 79.3807C40.1269 79.2216 40.0746 79.0378 40.075 78.8504V73.5404C40.075 70.8882 41.1286 68.3447 43.0039 66.4693C44.8793 64.5939 47.4228 63.5404 50.075 63.5404H58.645C61.2972 63.5404 63.8407 64.5939 65.7161 66.4693C67.5914 68.3447 68.645 70.8882 68.645 73.5404V78.9504C68.6445 79.1389 68.5907 79.3234 68.4898 79.4826C68.389 79.6418 68.2452 79.7693 68.075 79.8504C63.8318 81.8653 59.1923 82.9073 54.495 82.9004L54.465 82.9204ZM42.105 78.2404C48.2142 81.0137 55.0779 81.6546 61.595 80.0604C63.3088 79.6303 64.9819 79.0514 66.595 78.3304V73.5604C66.6017 72.508 66.3993 71.4647 65.9996 70.4911C65.5999 69.5175 65.0109 68.6329 64.2667 67.8887C63.5225 67.1445 62.6379 66.5555 61.6643 66.1558C60.6907 65.7561 59.6474 65.5537 58.595 65.5604H50.025C47.9033 65.5604 45.8685 66.4032 44.3682 67.9035C42.8679 69.4038 42.025 71.4387 42.025 73.5604L42.105 78.2404Z" fill="#093F68"/>
<path d="M54.355 77.5204L52.755 65.3404H56.855L54.355 77.5204Z" fill="#093F68"/>
<path d="M54.355 78.5204C54.1109 78.5225 53.8744 78.4351 53.6902 78.2749C53.506 78.1146 53.3868 77.8925 53.355 77.6504L51.755 65.4704C51.7365 65.3292 51.7483 65.1857 51.7897 65.0495C51.8311 64.9132 51.9011 64.7874 51.995 64.6804C52.0845 64.5756 52.1946 64.4904 52.3185 64.4302C52.4424 64.37 52.5774 64.336 52.715 64.3304H56.8151C56.965 64.3273 57.1138 64.3581 57.2503 64.4203C57.3867 64.4826 57.5075 64.5748 57.6035 64.69C57.6996 64.8052 57.7684 64.9406 57.805 65.0861C57.8417 65.2316 57.8451 65.3834 57.8151 65.5304L55.3151 77.7104C55.2717 77.9348 55.1528 78.1375 54.9781 78.2849C54.8034 78.4323 54.5835 78.5154 54.355 78.5204ZM53.895 66.3304L54.575 71.4904L55.575 66.3304H53.895Z" fill="#093F68"/>
<path d="M46.885 81.9704C46.6198 81.9704 46.3654 81.865 46.1779 81.6775C45.9904 81.4899 45.885 81.2356 45.885 80.9704V74.3304C45.885 74.0652 45.9904 73.8108 46.1779 73.6233C46.3654 73.4357 46.6198 73.3304 46.885 73.3304C47.1502 73.3304 47.4046 73.4357 47.5921 73.6233C47.7797 73.8108 47.885 74.0652 47.885 74.3304V80.9904C47.8798 81.2521 47.7721 81.5014 47.5851 81.6846C47.3982 81.8678 47.1468 81.9704 46.885 81.9704Z" fill="#093F68"/>
<path d="M61.835 82.0304C61.5698 82.0304 61.3155 81.925 61.1279 81.7375C60.9404 81.5499 60.835 81.2956 60.835 81.0304V74.3304C60.835 74.0652 60.9404 73.8108 61.1279 73.6233C61.3155 73.4357 61.5698 73.3304 61.835 73.3304C62.1002 73.3304 62.3546 73.4357 62.5421 73.6233C62.7297 73.8108 62.835 74.0652 62.835 74.3304V81.0504C62.8298 81.3121 62.7221 81.5614 62.5352 81.7446C62.3482 81.9278 62.0968 82.0304 61.835 82.0304Z" fill="#093F68"/>
<path d="M52.715 63.3304H56.815V65.6904C56.815 65.9189 56.77 66.1451 56.6826 66.3563C56.5951 66.5674 56.467 66.7592 56.3054 66.9207C56.1438 67.0823 55.952 67.2105 55.7409 67.2979C55.5298 67.3854 55.3035 67.4304 55.075 67.4304H54.455C53.9936 67.4304 53.551 67.2471 53.2247 66.9207C52.8983 66.5944 52.715 66.1519 52.715 65.6904V63.3304Z" fill="#FFC9B0"/>
<path d="M55.115 68.3904H54.495C53.7683 68.3904 53.0714 68.1017 52.5575 67.5878C52.0437 67.074 51.755 66.3771 51.755 65.6504V63.3304C51.755 63.0652 51.8604 62.8108 52.0479 62.6233C52.2354 62.4357 52.4898 62.3304 52.755 62.3304H56.855C57.1202 62.3304 57.3746 62.4357 57.5621 62.6233C57.7497 62.8108 57.855 63.0652 57.855 63.3304V65.6904C57.8445 66.4101 57.5512 67.0968 57.0385 67.602C56.5258 68.1073 55.8348 68.3905 55.115 68.3904ZM53.715 64.3304V65.6904C53.715 65.7876 53.7342 65.8838 53.7713 65.9736C53.8085 66.0633 53.863 66.1449 53.9317 66.2136C54.0005 66.2824 54.082 66.3369 54.1718 66.3741C54.2616 66.4112 54.3578 66.4304 54.455 66.4304H55.075C55.2713 66.4304 55.4595 66.3524 55.5983 66.2136C55.737 66.0749 55.815 65.8866 55.815 65.6904V64.3304H53.715Z" fill="#093F68"/>
<path d="M43.075 56.0604C45.2786 56.0604 47.065 54.5247 47.065 52.6304C47.065 50.736 45.2786 49.2004 43.075 49.2004C40.8714 49.2004 39.085 50.736 39.085 52.6304C39.085 54.5247 40.8714 56.0604 43.075 56.0604Z" fill="#FFC9B0"/>
<path d="M43.075 57.0704C42.2197 56.9682 41.4121 56.6211 40.7494 56.0708C40.0867 55.5205 39.5971 54.7905 39.3395 53.9685C39.0819 53.1465 39.0674 52.2676 39.2975 51.4375C39.5277 50.6074 39.9929 49.8615 40.637 49.2895C41.2811 48.7175 42.0767 48.3439 42.9282 48.2134C43.7797 48.083 44.6507 48.2014 45.4365 48.5543C46.2223 48.9073 46.8893 49.4798 47.3574 50.2029C47.8255 50.926 48.0747 51.769 48.075 52.6304C48.0003 53.882 47.4317 55.0528 46.4941 55.8854C45.5565 56.718 44.3267 57.1442 43.075 57.0704ZM43.075 50.2004C42.6141 50.2968 42.1899 50.522 41.8518 50.8498C41.5137 51.1776 41.2755 51.5946 41.1648 52.0523C41.0541 52.5101 41.0755 52.9898 41.2265 53.4359C41.3774 53.882 41.6518 54.2761 42.0178 54.5725C42.3837 54.8689 42.8262 55.0555 43.2939 55.1105C43.7616 55.1656 44.2353 55.0869 44.6601 54.8835C45.0849 54.6802 45.4433 54.3606 45.6937 53.9618C45.9442 53.563 46.0764 53.1013 46.075 52.6304C45.9944 51.9125 45.6345 51.2551 45.0731 50.8004C44.5117 50.3457 43.794 50.1302 43.075 50.2004Z" fill="#093F68"/>
<path d="M66.315 56.0604C68.5186 56.0604 70.305 54.5247 70.305 52.6304C70.305 50.736 68.5186 49.2004 66.315 49.2004C64.1114 49.2004 62.325 50.736 62.325 52.6304C62.325 54.5247 64.1114 56.0604 66.315 56.0604Z" fill="#FFC9B0"/>
<path d="M66.3151 57.0704C65.4597 56.9682 64.6521 56.6211 63.9894 56.0708C63.3267 55.5205 62.8371 54.7905 62.5796 53.9685C62.322 53.1465 62.3074 52.2676 62.5376 51.4375C62.7678 50.6074 63.2329 49.8615 63.877 49.2895C64.5211 48.7175 65.3168 48.3439 66.1682 48.2134C67.0197 48.083 67.8907 48.2014 68.6765 48.5543C69.4623 48.9073 70.1294 49.4798 70.5975 50.2029C71.0656 50.926 71.3148 51.769 71.3151 52.6304C71.2404 53.882 70.6717 55.0528 69.7341 55.8854C68.7966 56.718 67.5668 57.1442 66.3151 57.0704ZM66.3151 50.2004C65.8541 50.2968 65.43 50.522 65.0919 50.8498C64.7537 51.1776 64.5155 51.5946 64.4048 52.0523C64.2941 52.5101 64.3155 52.9898 64.4665 53.4359C64.6175 53.882 64.8919 54.2761 65.2578 54.5725C65.6238 54.8689 66.0663 55.0555 66.534 55.1105C67.0017 55.1656 67.4754 55.0869 67.9001 54.8835C68.3249 54.6802 68.6833 54.3606 68.9338 53.9618C69.1842 53.563 69.3164 53.1013 69.3151 52.6304C69.2344 51.9125 68.8745 51.2551 68.3132 50.8004C67.7518 50.3457 67.0341 50.1302 66.3151 50.2004Z" fill="#093F68"/>
<path d="M62.115 42.4404L58.225 37.4404L56.815 42.4404H50.685L49.235 37.9804L47.535 42.4304H42.785V51.8504C42.785 55.033 44.0493 58.0852 46.2997 60.3357C48.5502 62.5861 51.6024 63.8504 54.785 63.8504C57.9676 63.8504 61.0199 62.5861 63.2703 60.3357C65.5207 58.0852 66.785 55.033 66.785 51.8504V42.4604L62.115 42.4404Z" fill="#FFC9B0"/>
<path d="M54.8051 64.8304C51.3572 64.8304 48.0506 63.4607 45.6127 61.0228C43.1747 58.5848 41.8051 55.2782 41.8051 51.8304V42.3904C41.8051 42.1252 41.9104 41.8708 42.0979 41.6833C42.2855 41.4957 42.5398 41.3904 42.8051 41.3904H46.8651L48.3251 37.5804C48.4015 37.3809 48.5398 37.2111 48.7198 37.0959C48.8998 36.9807 49.1119 36.9262 49.3251 36.9404C49.5308 36.9467 49.7295 37.0164 49.8942 37.1399C50.0588 37.2634 50.1814 37.4347 50.2451 37.6304L51.4751 41.4004H56.1151C56.6451 39.5204 57.3251 37.1404 57.3251 37.1404C57.3758 36.9629 57.4747 36.803 57.6107 36.6783C57.7467 36.5536 57.9146 36.4689 58.0958 36.4337C58.277 36.3985 58.4643 36.4141 58.6372 36.4788C58.81 36.5436 58.9616 36.6548 59.0751 36.8004L62.6651 41.4204H66.8851C67.1503 41.4204 67.4046 41.5257 67.5922 41.7133C67.7797 41.9008 67.8851 42.1552 67.8851 42.4204V51.7704C67.893 53.4894 67.56 55.1929 66.9052 56.7823C66.2505 58.3717 65.287 59.8155 64.0706 61.03C62.8541 62.2446 61.4089 63.2059 59.8184 63.8582C58.228 64.5105 56.524 64.841 54.8051 64.8304ZM43.8051 43.3904V51.8104C43.8051 54.7278 44.964 57.5256 47.0269 59.5885C49.0898 61.6514 51.8877 62.8104 54.8051 62.8104C57.7224 62.8104 60.5203 61.6514 62.5832 59.5885C64.6461 57.5256 65.8051 54.7278 65.8051 51.8104V43.4504H62.1151C61.9632 43.4512 61.8131 43.4174 61.6762 43.3516C61.5393 43.2857 61.4192 43.1896 61.3251 43.0704L58.6451 39.6304C58.365 40.6304 58.0351 41.8004 57.7751 42.7104C57.7146 42.9267 57.583 43.1163 57.4016 43.2488C57.2202 43.3812 56.9995 43.4487 56.7751 43.4404H50.6351C50.4259 43.4381 50.2227 43.3703 50.0541 43.2466C49.8855 43.1228 49.7599 42.9493 49.6951 42.7504L49.1151 40.9804L48.4351 42.7904C48.3619 42.9799 48.2328 43.1427 48.0649 43.257C47.897 43.3713 47.6982 43.4318 47.4951 43.4304H43.7451L43.8051 43.3904Z" fill="#093F68"/>
<path d="M54.7151 54.8004C54.3132 54.796 53.9121 54.7626 53.5151 54.7004C53.2498 54.654 53.0139 54.5041 52.8592 54.2837C52.7045 54.0634 52.6437 53.7906 52.6901 53.5254C52.7365 53.2602 52.8863 53.0242 53.1067 52.8695C53.327 52.7148 53.5998 52.654 53.8651 52.7004C54.1202 52.7383 54.3773 52.7616 54.6351 52.7704C54.4288 52.1725 54.1781 51.5908 53.8851 51.0304C53.7617 50.7943 53.7372 50.519 53.8169 50.2649C53.8966 50.0107 54.074 49.7987 54.3101 49.6754C54.5461 49.5521 54.8215 49.5275 55.0756 49.6072C55.3297 49.687 55.5417 49.8643 55.6651 50.1004C57.1051 52.8704 56.7351 53.6804 56.6651 53.9504C56.5885 54.1239 56.4728 54.2774 56.3271 54.3989C56.1814 54.5203 56.0096 54.6064 55.8251 54.6504C55.4633 54.749 55.0901 54.7995 54.7151 54.8004Z" fill="#093F68"/>
<path d="M139.595 36.5404H101.085C100.555 36.5404 100.046 36.3297 99.6708 35.9546C99.2957 35.5795 99.085 35.0708 99.085 34.5404C99.085 34.0099 99.2957 33.5012 99.6708 33.1262C100.046 32.7511 100.555 32.5404 101.085 32.5404H139.595C140.125 32.5404 140.634 32.7511 141.009 33.1262C141.384 33.5012 141.595 34.0099 141.595 34.5404C141.595 35.0708 141.384 35.5795 141.009 35.9546C140.634 36.3297 140.125 36.5404 139.595 36.5404Z" fill="#DFEAEF"/>
<path d="M139.595 48.3304H101.085C100.555 48.3304 100.046 48.1197 99.6708 47.7446C99.2957 47.3695 99.085 46.8608 99.085 46.3304C99.085 45.7999 99.2957 45.2912 99.6708 44.9162C100.046 44.5411 100.555 44.3304 101.085 44.3304H139.595C140.125 44.3304 140.634 44.5411 141.009 44.9162C141.384 45.2912 141.595 45.7999 141.595 46.3304C141.595 46.8608 141.384 47.3695 141.009 47.7446C140.634 48.1197 140.125 48.3304 139.595 48.3304Z" fill="#DFEAEF"/>
<path d="M139.595 60.1204H101.085C100.555 60.1204 100.046 59.9097 99.6708 59.5346C99.2957 59.1595 99.085 58.6508 99.085 58.1204C99.085 57.5899 99.2957 57.0812 99.6708 56.7062C100.046 56.3311 100.555 56.1204 101.085 56.1204H139.595C140.125 56.1204 140.634 56.3311 141.009 56.7062C141.384 57.0812 141.595 57.5899 141.595 58.1204C141.595 58.6508 141.384 59.1595 141.009 59.5346C140.634 59.9097 140.125 60.1204 139.595 60.1204Z" fill="#DFEAEF"/>
<path d="M125.365 71.9104H101.085C100.555 71.9104 100.046 71.6997 99.6708 71.3246C99.2957 70.9495 99.085 70.4408 99.085 69.9104C99.085 69.3799 99.2957 68.8712 99.6708 68.4962C100.046 68.1211 100.555 67.9104 101.085 67.9104H125.365C125.895 67.9104 126.404 68.1211 126.779 68.4962C127.154 68.8712 127.365 69.3799 127.365 69.9104C127.365 70.4408 127.154 70.9495 126.779 71.3246C126.404 71.6997 125.895 71.9104 125.365 71.9104Z" fill="#DFEAEF"/>
<path d="M139.595 95.5804H27.2451C26.9798 95.5804 26.7255 95.475 26.5379 95.2875C26.3504 95.0999 26.2451 94.8456 26.2451 94.5804C26.2451 94.3152 26.3504 94.0608 26.5379 93.8733C26.7255 93.6857 26.9798 93.5804 27.2451 93.5804H139.595C139.86 93.5804 140.115 93.6857 140.302 93.8733C140.49 94.0608 140.595 94.3152 140.595 94.5804C140.595 94.8456 140.49 95.0999 140.302 95.2875C140.115 95.475 139.86 95.5804 139.595 95.5804Z" fill="#DFEAEF"/>
<path d="M139.595 110.15H46.885C46.6198 110.15 46.3654 110.045 46.1779 109.857C45.9904 109.67 45.885 109.416 45.885 109.15C45.885 108.885 45.9904 108.631 46.1779 108.443C46.3654 108.256 46.6198 108.15 46.885 108.15H139.595C139.86 108.15 140.115 108.256 140.302 108.443C140.49 108.631 140.595 108.885 140.595 109.15C140.595 109.416 140.49 109.67 140.302 109.857C140.115 110.045 139.86 110.15 139.595 110.15Z" fill="#DFEAEF"/>
<path d="M139.595 124.72H87.955C87.6898 124.72 87.4354 124.615 87.2479 124.427C87.0604 124.24 86.955 123.986 86.955 123.72C86.955 123.455 87.0604 123.201 87.2479 123.013C87.4354 122.826 87.6898 122.72 87.955 122.72H139.595C139.86 122.72 140.115 122.826 140.302 123.013C140.49 123.201 140.595 123.455 140.595 123.72C140.595 123.986 140.49 124.24 140.302 124.427C140.115 124.615 139.86 124.72 139.595 124.72Z" fill="#DFEAEF"/>
<path d="M76.7751 124.72H27.2451C26.9798 124.72 26.7255 124.615 26.5379 124.427C26.3504 124.24 26.2451 123.986 26.2451 123.72C26.2451 123.455 26.3504 123.201 26.5379 123.013C26.7255 122.826 26.9798 122.72 27.2451 122.72H76.7751C77.0403 122.72 77.2946 122.826 77.4822 123.013C77.6697 123.201 77.7751 123.455 77.7751 123.72C77.7751 123.986 77.6697 124.24 77.4822 124.427C77.2946 124.615 77.0403 124.72 76.7751 124.72Z" fill="#DFEAEF"/>
<path d="M139.595 139.33H113.225C112.96 139.33 112.705 139.225 112.518 139.037C112.33 138.85 112.225 138.596 112.225 138.33C112.225 138.065 112.33 137.811 112.518 137.623C112.705 137.436 112.96 137.33 113.225 137.33H139.595C139.86 137.33 140.115 137.436 140.302 137.623C140.49 137.811 140.595 138.065 140.595 138.33C140.595 138.596 140.49 138.85 140.302 139.037C140.115 139.225 139.86 139.33 139.595 139.33Z" fill="#DFEAEF"/>
<path d="M101.085 139.33H67.6151C67.3498 139.33 67.0955 139.225 66.9079 139.037C66.7204 138.85 66.6151 138.596 66.6151 138.33C66.6151 138.065 66.7204 137.811 66.9079 137.623C67.0955 137.436 67.3498 137.33 67.6151 137.33H101.085C101.35 137.33 101.605 137.436 101.792 137.623C101.98 137.811 102.085 138.065 102.085 138.33C102.085 138.596 101.98 138.85 101.792 139.037C101.605 139.225 101.35 139.33 101.085 139.33Z" fill="#DFEAEF"/>
<path d="M52.0151 139.33H27.2451C26.9798 139.33 26.7255 139.225 26.5379 139.037C26.3504 138.85 26.2451 138.596 26.2451 138.33C26.2451 138.065 26.3504 137.811 26.5379 137.623C26.7255 137.436 26.9798 137.33 27.2451 137.33H52.0151C52.2803 137.33 52.5346 137.436 52.7222 137.623C52.9097 137.811 53.0151 138.065 53.0151 138.33C53.0151 138.596 52.9097 138.85 52.7222 139.037C52.5346 139.225 52.2803 139.33 52.0151 139.33Z" fill="#DFEAEF"/>
<path d="M139.595 166.12H111.505C110.975 166.12 110.466 165.91 110.091 165.535C109.716 165.16 109.505 164.651 109.505 164.12C109.505 163.59 109.716 163.081 110.091 162.706C110.466 162.331 110.975 162.12 111.505 162.12H139.595C140.125 162.12 140.634 162.331 141.009 162.706C141.384 163.081 141.595 163.59 141.595 164.12C141.595 164.651 141.384 165.16 141.009 165.535C140.634 165.91 140.125 166.12 139.595 166.12Z" fill="#DFEAEF"/>
<path d="M76.7751 169.2H27.2451C26.9798 169.2 26.7255 169.095 26.5379 168.907C26.3504 168.72 26.2451 168.466 26.2451 168.2V152.33C26.2451 152.065 26.3504 151.811 26.5379 151.623C26.7255 151.436 26.9798 151.33 27.2451 151.33H76.7751C77.0403 151.33 77.2946 151.436 77.4822 151.623C77.6697 151.811 77.7751 152.065 77.7751 152.33V168.19C77.7764 168.323 77.7515 168.454 77.7018 168.576C77.6522 168.699 77.5787 168.81 77.4857 168.904C77.3927 168.998 77.282 169.072 77.1601 169.123C77.0381 169.174 76.9072 169.2 76.7751 169.2ZM28.2451 167.2H75.7751V153.33H28.2451V167.2Z" fill="#DFEAEF"/>
<path d="M43.075 169.2C42.8098 169.2 42.5554 169.095 42.3679 168.907C42.1804 168.72 42.075 168.466 42.075 168.2V152.33C42.075 152.065 42.1804 151.811 42.3679 151.623C42.5554 151.436 42.8098 151.33 43.075 151.33C43.3402 151.33 43.5946 151.436 43.7821 151.623C43.9697 151.811 44.075 152.065 44.075 152.33V168.19C44.0763 168.323 44.0514 168.454 44.0018 168.576C43.9521 168.699 43.8787 168.81 43.7857 168.904C43.6927 168.998 43.582 169.072 43.46 169.123C43.338 169.174 43.2072 169.2 43.075 169.2Z" fill="#DFEAEF"/>
<path d="M118.065 20.1604C116.851 20.0938 115.708 19.5641 114.873 18.6805C114.038 17.7968 113.573 16.6264 113.575 15.4104V12.0704C113.575 11.8052 113.68 11.5508 113.868 11.3633C114.055 11.1757 114.31 11.0704 114.575 11.0704C114.84 11.0704 115.095 11.1757 115.282 11.3633C115.47 11.5508 115.575 11.8052 115.575 12.0704V15.4104C115.579 16.0949 115.835 16.754 116.294 17.2615C116.754 17.7689 117.384 18.089 118.065 18.1604C120.065 18.1604 121.345 17.1004 121.345 15.4104V4.86038C121.204 4.09213 120.798 3.39766 120.198 2.89772C119.598 2.39779 118.841 2.12402 118.06 2.12402C117.279 2.12402 116.523 2.39779 115.922 2.89772C115.322 3.39766 114.916 4.09213 114.775 4.86038V6.74038C114.775 7.0056 114.67 7.25995 114.482 7.44749C114.295 7.63502 114.04 7.74038 113.775 7.74038C113.51 7.74038 113.255 7.63502 113.068 7.44749C112.88 7.25995 112.775 7.0056 112.775 6.74038V4.86038C112.925 3.56351 113.546 2.36688 114.52 1.49825C115.495 0.629615 116.755 0.14962 118.06 0.14962C119.365 0.14962 120.625 0.629615 121.6 1.49825C122.574 2.36688 123.196 3.56351 123.345 4.86038V15.4104C123.345 18.2004 121.175 20.1604 118.065 20.1604Z" fill="#093F68"/>
</svg>
