<svg width="25" height="20" viewBox="0 0 25 20" fill="none" xmlns="http://www.w3.org/2000/svg">
<path d="M24.2071 10.7075L15.2071 19.7075C15.0195 19.8951 14.765 20.0006 14.4996 20.0006C14.2343 20.0006 13.9798 19.8951 13.7921 19.7075C13.6045 19.5199 13.4991 19.2654 13.4991 19C13.4991 18.7346 13.6045 18.4801 13.7921 18.2925L21.0859 11H1.49963C1.23442 11 0.980064 10.8947 0.792527 10.7071C0.604991 10.5196 0.499634 10.2652 0.499634 10C0.499634 9.73479 0.604991 9.48044 0.792527 9.2929C0.980064 9.10536 1.23442 9.00001 1.49963 9.00001H21.0859L13.7921 1.70751C13.6045 1.51987 13.4991 1.26537 13.4991 1.00001C13.4991 0.734643 13.6045 0.480147 13.7921 0.292507C13.9798 0.104866 14.2343 -0.000549316 14.4996 -0.000549316C14.765 -0.000549316 15.0195 0.104866 15.2071 0.292507L24.2071 9.29251C24.3001 9.38538 24.3739 9.49567 24.4242 9.61707C24.4745 9.73846 24.5004 9.86859 24.5004 10C24.5004 10.1314 24.4745 10.2615 24.4242 10.3829C24.3739 10.5043 24.3001 10.6146 24.2071 10.7075Z" fill="black"/>
</svg>
