<svg width="100" height="100" viewBox="0 0 100 100" fill="none" xmlns="http://www.w3.org/2000/svg">
<mask id="mask0_225_111" style="mask-type:luminance" maskUnits="userSpaceOnUse" x="0" y="0" width="100" height="100">
<path d="M100 0H0V100H100V0Z" fill="white"/>
</mask>
<g mask="url(#mask0_225_111)">
<path fill-rule="evenodd" clip-rule="evenodd" d="M100 49.2617C98.2385 49.743 96.3845 50 94.4705 50H72.1165C60.5585 50 51.189 59.3695 51.189 70.927V95.6595C51.189 97.1475 51.0335 98.5995 50.7385 100C50.257 98.2385 50 96.3845 50 94.4705V72.1165C50 60.5585 40.6306 51.189 29.0728 51.189H4.34061C2.85234 51.189 1.40036 51.0335 0 50.7385C1.76145 50.257 3.61553 50 5.52965 50H27.8838C39.4416 50 48.811 40.6306 48.811 29.0728V4.34059C48.811 2.85233 48.9664 1.40035 49.2617 0C49.743 1.76145 50 3.61554 50 5.52965V27.8838C50 39.4416 59.3695 48.811 70.9275 48.811H95.6595C97.1475 48.811 98.5995 48.9664 100 49.2617Z" fill="#FF1761"/>
</g>
</svg>
