<svg width="27" height="27" viewBox="0 0 27 27" fill="none" xmlns="http://www.w3.org/2000/svg">
<path d="M6.99998 13.5354C7.00713 16.1585 6.401 18.7469 5.22998 21.0942C5.17408 21.2158 5.09431 21.3251 4.9954 21.4153C4.89649 21.5056 4.78045 21.5751 4.65418 21.6197C4.5279 21.6643 4.39395 21.6831 4.26029 21.6749C4.12662 21.6667 3.99595 21.6318 3.87604 21.5722C3.75613 21.5126 3.64941 21.4295 3.56223 21.3278C3.47504 21.2262 3.40916 21.108 3.36849 20.9804C3.32782 20.8529 3.31319 20.7184 3.32547 20.585C3.33775 20.4517 3.37669 20.3222 3.43998 20.2042C4.47248 18.1331 5.00668 15.8495 4.99998 13.5354C4.99763 12.186 5.29991 10.8534 5.88428 9.63702C6.46865 8.42066 7.32004 7.3519 8.37498 6.5104C8.58201 6.34464 8.84641 6.26791 9.11002 6.2971C9.37362 6.32628 9.61484 6.45899 9.7806 6.66603C9.94636 6.87306 10.0231 7.13746 9.9939 7.40107C9.96472 7.66467 9.83201 7.90589 9.62498 8.07165C8.80428 8.72595 8.14195 9.55715 7.68742 10.5032C7.23289 11.4493 6.9979 12.4858 6.99998 13.5354ZM14 12.5354C13.7348 12.5354 13.4804 12.6408 13.2929 12.8283C13.1053 13.0158 13 13.2702 13 13.5354C12.9998 17.4314 12.0105 21.2636 10.125 24.6729C9.99635 24.905 9.96517 25.1786 10.0383 25.4337C10.1114 25.6887 10.2829 25.9043 10.515 26.0329C10.747 26.1615 11.0207 26.1927 11.2757 26.1196C11.5308 26.0464 11.7463 25.875 11.875 25.6429C13.9245 21.9365 14.9997 17.7707 15 13.5354C15 13.2702 14.8946 13.0158 14.7071 12.8283C14.5195 12.6408 14.2652 12.5354 14 12.5354ZM14 8.5354C12.6739 8.5354 11.4021 9.06218 10.4644 9.99987C9.52676 10.9375 8.99998 12.2093 8.99998 13.5354C8.99998 13.8006 9.10533 14.055 9.29287 14.2425C9.4804 14.43 9.73476 14.5354 9.99998 14.5354C10.2652 14.5354 10.5195 14.43 10.7071 14.2425C10.8946 14.055 11 13.8006 11 13.5354C11 12.7398 11.316 11.9767 11.8787 11.4141C12.4413 10.8515 13.2043 10.5354 14 10.5354C14.7956 10.5354 15.5587 10.8515 16.1213 11.4141C16.6839 11.9767 17 12.7398 17 13.5354C17.0103 17.5116 16.1345 21.4401 14.4362 25.0354C14.3802 25.1545 14.3481 25.2835 14.3419 25.4149C14.3357 25.5464 14.3554 25.6778 14.4 25.8017C14.4446 25.9255 14.5131 26.0394 14.6017 26.1368C14.6902 26.2341 14.7971 26.3131 14.9162 26.3692C15.0353 26.4252 15.1643 26.4573 15.2958 26.4635C15.4272 26.4697 15.5587 26.45 15.6825 26.4054C15.8064 26.3608 15.9202 26.2923 16.0176 26.2037C16.115 26.1151 16.1939 26.0082 16.25 25.8892C18.0729 22.0266 19.0123 17.8065 19 13.5354C19 12.2093 18.4732 10.9375 17.5355 9.99987C16.5978 9.06218 15.3261 8.5354 14 8.5354ZM14 0.5354C10.5533 0.53904 7.24879 1.90985 4.81161 4.34703C2.37442 6.78422 1.00361 10.0887 0.999975 13.5354C1.00183 14.7841 0.79046 16.024 0.374975 17.2017C0.286625 17.4518 0.301258 17.7268 0.415655 17.9661C0.530052 18.2055 0.734843 18.3895 0.984975 18.4779C1.23511 18.5662 1.51009 18.5516 1.74944 18.4372C1.98878 18.3228 2.17287 18.118 2.26123 17.8679C2.75182 16.4762 3.00164 15.011 2.99998 13.5354C2.99998 10.618 4.1589 7.82013 6.2218 5.75723C8.2847 3.69433 11.0826 2.5354 14 2.5354C16.9174 2.5354 19.7153 3.69433 21.7782 5.75723C23.8411 7.82013 25 10.618 25 13.5354C25.0005 15.8202 24.779 18.0997 24.3387 20.3417C24.3133 20.4705 24.3134 20.6031 24.3392 20.7319C24.365 20.8607 24.4159 20.9832 24.4891 21.0923C24.5622 21.2014 24.6561 21.295 24.7654 21.3679C24.8748 21.4407 24.9974 21.4912 25.1262 21.5167C25.1901 21.529 25.2549 21.5353 25.32 21.5354C25.5514 21.5352 25.7755 21.4547 25.9543 21.3076C26.133 21.1606 26.2551 20.9562 26.3 20.7292C26.7657 18.3596 27.0001 15.9503 27 13.5354C26.996 10.0888 25.6251 6.78451 23.188 4.3474C20.7509 1.91028 17.4466 0.53937 14 0.5354ZM9.79998 16.5567C9.54062 16.5051 9.27139 16.5583 9.05119 16.7047C8.83099 16.8511 8.67774 17.0788 8.62498 17.3379C8.21922 19.3349 7.49273 21.2531 6.47373 23.0179C6.34112 23.2476 6.30521 23.5207 6.37389 23.7769C6.44258 24.0331 6.61023 24.2515 6.83998 24.3841C7.06972 24.5168 7.34273 24.5527 7.59895 24.484C7.85518 24.4153 8.07362 24.2476 8.20623 24.0179C9.33234 22.0664 10.1344 19.9451 10.5812 17.7367C10.6075 17.6079 10.6081 17.4752 10.5831 17.3461C10.558 17.2171 10.5078 17.0943 10.4352 16.9847C10.3627 16.8751 10.2692 16.7809 10.1602 16.7074C10.0512 16.634 9.9288 16.5827 9.79998 16.5567ZM14 4.5354C13.6239 4.53548 13.2482 4.55886 12.875 4.6054C12.6167 4.64417 12.3839 4.7824 12.2263 4.99056C12.0686 5.19871 11.9986 5.46028 12.0313 5.71935C12.0639 5.97843 12.1966 6.21445 12.401 6.37699C12.6054 6.53952 12.8652 6.61567 13.125 6.58915C14.1101 6.46665 15.1101 6.55479 16.0586 6.84774C17.0071 7.14069 17.8826 7.63176 18.6271 8.28846C19.3716 8.94515 19.9681 9.75249 20.3772 10.657C20.7863 11.5616 20.9985 12.5427 21 13.5354C20.9997 14.8308 20.9195 16.1249 20.76 17.4104C20.7424 17.5411 20.7509 17.674 20.785 17.8015C20.819 17.9289 20.8779 18.0484 20.9583 18.1529C21.0387 18.2575 21.139 18.3451 21.2534 18.4108C21.3679 18.4764 21.4941 18.5188 21.625 18.5354C21.6665 18.5404 21.7082 18.5429 21.75 18.5429C21.9932 18.5424 22.2278 18.4532 22.4101 18.2922C22.5923 18.1311 22.7096 17.9092 22.74 17.6679C22.9086 16.2994 22.9921 14.9217 22.99 13.5429C22.9893 11.1572 22.0425 8.86913 20.3572 7.18054C18.6719 5.49196 16.3857 4.5407 14 4.5354ZM21.2412 20.5667C21.114 20.5338 20.9815 20.5263 20.8514 20.5446C20.7213 20.5629 20.5961 20.6067 20.4829 20.6734C20.3697 20.7402 20.2708 20.8286 20.1918 20.9336C20.1128 21.0386 20.0552 21.1581 20.0225 21.2854C19.84 21.9967 19.6287 22.7104 19.3975 23.4104C19.3129 23.6612 19.3311 23.9353 19.4483 24.1727C19.5654 24.4101 19.7719 24.5913 20.0225 24.6767C20.1251 24.7116 20.2328 24.7293 20.3412 24.7292C20.5507 24.729 20.7549 24.663 20.9249 24.5406C21.0949 24.4181 21.2222 24.2453 21.2887 24.0466C21.5387 23.3067 21.7625 22.5466 21.9575 21.7904C21.991 21.6632 21.9991 21.5306 21.9813 21.4002C21.9635 21.2699 21.9201 21.1443 21.8537 21.0308C21.7873 20.9172 21.6991 20.8179 21.5942 20.7384C21.4893 20.659 21.3698 20.6011 21.2425 20.5679L21.2412 20.5667Z" fill="#09090B"/>
</svg>
